<svg width="120" height="120" viewBox="0 0 120 120" fill="none" xmlns="http://www.w3.org/2000/svg">
<g clip-path="url(#clip0_80_14)">
<path d="M79.3264 42.976C77.6633 39.9123 75.2561 37.5927 72.1049 36.0171C69.0412 34.354 65.4086 33.5224 61.207 33.5224C53.9417 33.5224 48.1208 35.9296 43.7441 40.7439C39.3674 45.4707 37.1791 51.8169 37.1791 59.7824C37.1791 68.2731 39.455 74.9257 44.0067 79.74C48.646 84.4668 54.9921 86.8302 63.0452 86.8302C68.5598 86.8302 73.1991 85.4297 76.963 82.6286C80.8145 79.8275 83.6155 75.801 85.3662 70.549H56.8741V54.0052H105.718V74.8819C104.055 80.484 101.21 85.6923 97.1832 90.5066C93.2442 95.3209 88.211 99.2162 82.0837 102.192C75.9564 105.168 69.0412 106.657 61.3383 106.657C52.2348 106.657 44.0942 104.687 36.9165 100.748C29.8263 96.7215 24.2679 91.1631 20.2414 84.0729C16.3024 76.9827 14.3329 68.8859 14.3329 59.7824C14.3329 50.6789 16.3024 42.5821 20.2414 35.4919C24.2679 28.3142 29.8263 22.7558 36.9165 18.8168C44.0067 14.7902 52.1035 12.777 61.207 12.777C72.2362 12.777 81.5147 15.4467 89.0426 20.7863C96.658 26.1258 101.691 33.5224 104.142 42.976H79.3264Z" fill="black"/>
<path d="M79.3264 42.976C77.6633 39.9123 75.2561 37.5927 72.1049 36.0171C69.0412 34.354 65.4086 33.5224 61.207 33.5224C53.9417 33.5224 48.1208 35.9296 43.7441 40.7439C39.3674 45.4707 37.1791 51.8169 37.1791 59.7824C37.1791 68.2731 39.455 74.9257 44.0067 79.74C48.646 84.4668 54.9921 86.8302 63.0452 86.8302C68.5598 86.8302 73.1991 85.4297 76.963 82.6286C80.8145 79.8275 83.6155 75.801 85.3662 70.549H56.8741V54.0052H105.718V74.8819C104.055 80.484 101.21 85.6923 97.1832 90.5066C93.2442 95.3209 88.211 99.2162 82.0837 102.192C75.9564 105.168 69.0412 106.657 61.3383 106.657C52.2348 106.657 44.0942 104.687 36.9165 100.748C29.8263 96.7215 24.2679 91.1631 20.2414 84.0729C16.3024 76.9827 14.3329 68.8859 14.3329 59.7824C14.3329 50.6789 16.3024 42.5821 20.2414 35.4919C24.2679 28.3142 29.8263 22.7558 36.9165 18.8168C44.0067 14.7902 52.1035 12.777 61.207 12.777C72.2362 12.777 81.5147 15.4467 89.0426 20.7863C96.658 26.1258 101.691 33.5224 104.142 42.976H79.3264Z" fill="url(#paint0_linear_80_14)"/>
</g>
<defs>
<linearGradient id="paint0_linear_80_14" x1="111" y1="-37.9998" x2="5.02308" y2="-35.2843" gradientUnits="userSpaceOnUse">
<stop stop-color="#C495FF"/>
<stop offset="1" stop-color="#6C95FF"/>
</linearGradient>
<clipPath id="clip0_80_14">
<rect width="120" height="120" fill="white"/>
</clipPath>
</defs>
</svg>
