<svg width="176" height="39" viewBox="0 0 176 39" fill="none" xmlns="http://www.w3.org/2000/svg">
<path d="M13.728 16.52C13.3987 15.9133 12.922 15.454 12.298 15.142C11.6913 14.8127 10.972 14.648 10.14 14.648C8.70133 14.648 7.54867 15.1247 6.682 16.078C5.81533 17.014 5.382 18.2707 5.382 19.848C5.382 21.5293 5.83267 22.8467 6.734 23.8C7.65267 24.736 8.90933 25.204 10.504 25.204C11.596 25.204 12.5147 24.9267 13.26 24.372C14.0227 23.8173 14.5773 23.02 14.924 21.98H9.282V18.704H18.954V22.838C18.6247 23.9473 18.0613 24.9787 17.264 25.932C16.484 26.8853 15.4873 27.6567 14.274 28.246C13.0607 28.8353 11.6913 29.13 10.166 29.13C8.36333 29.13 6.75133 28.74 5.33 27.96C3.926 27.1627 2.82533 26.062 2.028 24.658C1.248 23.254 0.858 21.6507 0.858 19.848C0.858 18.0453 1.248 16.442 2.028 15.038C2.82533 13.6167 3.926 12.516 5.33 11.736C6.734 10.9387 8.33733 10.54 10.14 10.54C12.324 10.54 14.1613 11.0687 15.652 12.126C17.16 13.1833 18.1567 14.648 18.642 16.52H13.728ZM35.7427 14.492V29H31.2967V27.024C30.846 27.6653 30.2307 28.1853 29.4507 28.584C28.688 28.9653 27.8387 29.156 26.9027 29.156C25.7934 29.156 24.814 28.9133 23.9647 28.428C23.1154 27.9253 22.4567 27.206 21.9887 26.27C21.5207 25.334 21.2867 24.2333 21.2867 22.968V14.492H25.7067V22.37C25.7067 23.3407 25.958 24.0947 26.4607 24.632C26.9634 25.1693 27.6394 25.438 28.4887 25.438C29.3554 25.438 30.04 25.1693 30.5427 24.632C31.0454 24.0947 31.2967 23.3407 31.2967 22.37V14.492H35.7427ZM41.1722 12.984C40.3922 12.984 39.7509 12.7587 39.2482 12.308C38.7629 11.84 38.5202 11.268 38.5202 10.592C38.5202 9.89867 38.7629 9.32667 39.2482 8.876C39.7509 8.408 40.3922 8.174 41.1722 8.174C41.9349 8.174 42.5589 8.408 43.0442 8.876C43.5469 9.32667 43.7982 9.89867 43.7982 10.592C43.7982 11.268 43.5469 11.84 43.0442 12.308C42.5589 12.7587 41.9349 12.984 41.1722 12.984ZM43.3822 14.492V29H38.9362V14.492H43.3822ZM51.0502 9.76V29H46.6042V9.76H51.0502ZM63.1902 14.336C64.8542 14.336 66.1888 14.8907 67.1942 16C68.1995 17.092 68.7022 18.6 68.7022 20.524V29H64.2822V21.122C64.2822 20.1513 64.0308 19.3973 63.5282 18.86C63.0255 18.3227 62.3495 18.054 61.5002 18.054C60.6508 18.054 59.9748 18.3227 59.4722 18.86C58.9695 19.3973 58.7182 20.1513 58.7182 21.122V29H54.2722V9.76H58.7182V16.442C59.1688 15.8007 59.7842 15.2893 60.5642 14.908C61.3442 14.5267 62.2195 14.336 63.1902 14.336ZM85.4677 21.512C85.4677 21.928 85.4417 22.3613 85.3897 22.812H75.3277C75.397 23.7133 75.683 24.4067 76.1857 24.892C76.7057 25.36 77.3384 25.594 78.0837 25.594C79.193 25.594 79.9644 25.126 80.3977 24.19H85.1297C84.887 25.1433 84.445 26.0013 83.8037 26.764C83.1797 27.5267 82.391 28.1247 81.4377 28.558C80.4844 28.9913 79.4184 29.208 78.2397 29.208C76.8184 29.208 75.553 28.9047 74.4437 28.298C73.3344 27.6913 72.4677 26.8247 71.8437 25.698C71.2197 24.5713 70.9077 23.254 70.9077 21.746C70.9077 20.238 71.211 18.9207 71.8177 17.794C72.4417 16.6673 73.3084 15.8007 74.4177 15.194C75.527 14.5873 76.801 14.284 78.2397 14.284C79.6437 14.284 80.8917 14.5787 81.9837 15.168C83.0757 15.7573 83.925 16.598 84.5317 17.69C85.1557 18.782 85.4677 20.056 85.4677 21.512ZM80.9177 20.342C80.9177 19.5793 80.6577 18.9727 80.1377 18.522C79.6177 18.0713 78.9677 17.846 78.1877 17.846C77.4424 17.846 76.8097 18.0627 76.2897 18.496C75.787 18.9293 75.475 19.5447 75.3537 20.342H80.9177ZM92.2592 16.91C92.7792 16.1127 93.4292 15.4887 94.2092 15.038C94.9892 14.57 95.8558 14.336 96.8092 14.336V19.042H95.5872C94.4778 19.042 93.6458 19.2847 93.0912 19.77C92.5365 20.238 92.2592 21.07 92.2592 22.266V29H87.8132V14.492H92.2592V16.91ZM117.446 14.336C119.249 14.336 120.679 14.882 121.736 15.974C122.811 17.066 123.348 18.5827 123.348 20.524V29H118.928V21.122C118.928 20.186 118.677 19.4667 118.174 18.964C117.689 18.444 117.013 18.184 116.146 18.184C115.28 18.184 114.595 18.444 114.092 18.964C113.607 19.4667 113.364 20.186 113.364 21.122V29H108.944V21.122C108.944 20.186 108.693 19.4667 108.19 18.964C107.705 18.444 107.029 18.184 106.162 18.184C105.296 18.184 104.611 18.444 104.108 18.964C103.623 19.4667 103.38 20.186 103.38 21.122V29H98.9343V14.492H103.38V16.312C103.831 15.7053 104.42 15.2287 105.148 14.882C105.876 14.518 106.7 14.336 107.618 14.336C108.71 14.336 109.681 14.57 110.53 15.038C111.397 15.506 112.073 16.1733 112.558 17.04C113.061 16.2427 113.746 15.5927 114.612 15.09C115.479 14.5873 116.424 14.336 117.446 14.336ZM140.134 21.512C140.134 21.928 140.108 22.3613 140.056 22.812H129.994C130.063 23.7133 130.349 24.4067 130.852 24.892C131.372 25.36 132.004 25.594 132.75 25.594C133.859 25.594 134.63 25.126 135.064 24.19H139.796C139.553 25.1433 139.111 26.0013 138.47 26.764C137.846 27.5267 137.057 28.1247 136.104 28.558C135.15 28.9913 134.084 29.208 132.906 29.208C131.484 29.208 130.219 28.9047 129.11 28.298C128 27.6913 127.134 26.8247 126.51 25.698C125.886 24.5713 125.574 23.254 125.574 21.746C125.574 20.238 125.877 18.9207 126.484 17.794C127.108 16.6673 127.974 15.8007 129.084 15.194C130.193 14.5873 131.467 14.284 132.906 14.284C134.31 14.284 135.558 14.5787 136.65 15.168C137.742 15.7573 138.591 16.598 139.198 17.69C139.822 18.782 140.134 20.056 140.134 21.512ZM135.584 20.342C135.584 19.5793 135.324 18.9727 134.804 18.522C134.284 18.0713 133.634 17.846 132.854 17.846C132.108 17.846 131.476 18.0627 130.956 18.496C130.453 18.9293 130.141 19.5447 130.02 20.342H135.584ZM159.871 10.748V14.31H152.435V18.158H157.999V21.616H152.435V29H147.989V10.748H159.871ZM175.338 10.748V14.31H170.502V29H166.056V14.31H161.22V10.748H175.338Z" fill="url(#paint0_linear_766_495)"/>
<defs>
<linearGradient id="paint0_linear_766_495" x1="0" y1="19.5" x2="176" y2="19.5" gradientUnits="userSpaceOnUse">
<stop stop-color="#6185E2"/>
<stop offset="1" stop-color="#A9A6FF"/>
</linearGradient>
</defs>
</svg>
