<svg width="176" height="22" viewBox="0 0 176 22" fill="none" xmlns="http://www.w3.org/2000/svg">
<path d="M13.728 8.52C13.3987 7.91333 12.922 7.454 12.298 7.142C11.6913 6.81267 10.972 6.648 10.14 6.648C8.70133 6.648 7.54867 7.12467 6.682 8.078C5.81533 9.014 5.382 10.2707 5.382 11.848C5.382 13.5293 5.83267 14.8467 6.734 15.8C7.65267 16.736 8.90933 17.204 10.504 17.204C11.596 17.204 12.5147 16.9267 13.26 16.372C14.0227 15.8173 14.5773 15.02 14.924 13.98H9.282V10.704H18.954V14.838C18.6247 15.9473 18.0613 16.9787 17.264 17.932C16.484 18.8853 15.4873 19.6567 14.274 20.246C13.0607 20.8353 11.6913 21.13 10.166 21.13C8.36333 21.13 6.75133 20.74 5.33 19.96C3.926 19.1627 2.82533 18.062 2.028 16.658C1.248 15.254 0.858 13.6507 0.858 11.848C0.858 10.0453 1.248 8.442 2.028 7.038C2.82533 5.61667 3.926 4.516 5.33 3.736C6.734 2.93867 8.33733 2.54 10.14 2.54C12.324 2.54 14.1613 3.06867 15.652 4.126C17.16 5.18333 18.1567 6.648 18.642 8.52H13.728ZM35.7427 6.492V21H31.2967V19.024C30.846 19.6653 30.2307 20.1853 29.4507 20.584C28.688 20.9653 27.8387 21.156 26.9027 21.156C25.7934 21.156 24.814 20.9133 23.9647 20.428C23.1154 19.9253 22.4567 19.206 21.9887 18.27C21.5207 17.334 21.2867 16.2333 21.2867 14.968V6.492H25.7067V14.37C25.7067 15.3407 25.958 16.0947 26.4607 16.632C26.9634 17.1693 27.6394 17.438 28.4887 17.438C29.3554 17.438 30.04 17.1693 30.5427 16.632C31.0454 16.0947 31.2967 15.3407 31.2967 14.37V6.492H35.7427ZM41.1722 4.984C40.3922 4.984 39.7509 4.75867 39.2482 4.308C38.7629 3.84 38.5202 3.268 38.5202 2.592C38.5202 1.89867 38.7629 1.32667 39.2482 0.875999C39.7509 0.407999 40.3922 0.173998 41.1722 0.173998C41.9349 0.173998 42.5589 0.407999 43.0442 0.875999C43.5469 1.32667 43.7982 1.89867 43.7982 2.592C43.7982 3.268 43.5469 3.84 43.0442 4.308C42.5589 4.75867 41.9349 4.984 41.1722 4.984ZM43.3822 6.492V21H38.9362V6.492H43.3822ZM51.0502 1.76V21H46.6042V1.76H51.0502ZM63.1902 6.336C64.8542 6.336 66.1888 6.89067 67.1942 8C68.1995 9.092 68.7022 10.6 68.7022 12.524V21H64.2822V13.122C64.2822 12.1513 64.0308 11.3973 63.5282 10.86C63.0255 10.3227 62.3495 10.054 61.5002 10.054C60.6508 10.054 59.9748 10.3227 59.4722 10.86C58.9695 11.3973 58.7182 12.1513 58.7182 13.122V21H54.2722V1.76H58.7182V8.442C59.1688 7.80067 59.7842 7.28933 60.5642 6.908C61.3442 6.52667 62.2195 6.336 63.1902 6.336ZM85.4677 13.512C85.4677 13.928 85.4417 14.3613 85.3897 14.812H75.3277C75.397 15.7133 75.683 16.4067 76.1857 16.892C76.7057 17.36 77.3384 17.594 78.0837 17.594C79.193 17.594 79.9644 17.126 80.3977 16.19H85.1297C84.887 17.1433 84.445 18.0013 83.8037 18.764C83.1797 19.5267 82.391 20.1247 81.4377 20.558C80.4844 20.9913 79.4184 21.208 78.2397 21.208C76.8184 21.208 75.553 20.9047 74.4437 20.298C73.3344 19.6913 72.4677 18.8247 71.8437 17.698C71.2197 16.5713 70.9077 15.254 70.9077 13.746C70.9077 12.238 71.211 10.9207 71.8177 9.794C72.4417 8.66733 73.3084 7.80067 74.4177 7.194C75.527 6.58733 76.801 6.284 78.2397 6.284C79.6437 6.284 80.8917 6.57867 81.9837 7.168C83.0757 7.75733 83.925 8.598 84.5317 9.69C85.1557 10.782 85.4677 12.056 85.4677 13.512ZM80.9177 12.342C80.9177 11.5793 80.6577 10.9727 80.1377 10.522C79.6177 10.0713 78.9677 9.846 78.1877 9.846C77.4424 9.846 76.8097 10.0627 76.2897 10.496C75.787 10.9293 75.475 11.5447 75.3537 12.342H80.9177ZM92.2592 8.91C92.7792 8.11267 93.4292 7.48867 94.2092 7.038C94.9892 6.57 95.8558 6.336 96.8092 6.336V11.042H95.5872C94.4778 11.042 93.6458 11.2847 93.0912 11.77C92.5365 12.238 92.2592 13.07 92.2592 14.266V21H87.8132V6.492H92.2592V8.91ZM117.446 6.336C119.249 6.336 120.679 6.882 121.736 7.974C122.811 9.066 123.348 10.5827 123.348 12.524V21H118.928V13.122C118.928 12.186 118.677 11.4667 118.174 10.964C117.689 10.444 117.013 10.184 116.146 10.184C115.28 10.184 114.595 10.444 114.092 10.964C113.607 11.4667 113.364 12.186 113.364 13.122V21H108.944V13.122C108.944 12.186 108.693 11.4667 108.19 10.964C107.705 10.444 107.029 10.184 106.162 10.184C105.296 10.184 104.611 10.444 104.108 10.964C103.623 11.4667 103.38 12.186 103.38 13.122V21H98.9343V6.492H103.38V8.312C103.831 7.70533 104.42 7.22867 105.148 6.882C105.876 6.518 106.7 6.336 107.618 6.336C108.71 6.336 109.681 6.57 110.53 7.038C111.397 7.506 112.073 8.17333 112.558 9.04C113.061 8.24267 113.746 7.59267 114.612 7.09C115.479 6.58733 116.424 6.336 117.446 6.336ZM140.134 13.512C140.134 13.928 140.108 14.3613 140.056 14.812H129.994C130.063 15.7133 130.349 16.4067 130.852 16.892C131.372 17.36 132.004 17.594 132.75 17.594C133.859 17.594 134.63 17.126 135.064 16.19H139.796C139.553 17.1433 139.111 18.0013 138.47 18.764C137.846 19.5267 137.057 20.1247 136.104 20.558C135.15 20.9913 134.084 21.208 132.906 21.208C131.484 21.208 130.219 20.9047 129.11 20.298C128 19.6913 127.134 18.8247 126.51 17.698C125.886 16.5713 125.574 15.254 125.574 13.746C125.574 12.238 125.877 10.9207 126.484 9.794C127.108 8.66733 127.974 7.80067 129.084 7.194C130.193 6.58733 131.467 6.284 132.906 6.284C134.31 6.284 135.558 6.57867 136.65 7.168C137.742 7.75733 138.591 8.598 139.198 9.69C139.822 10.782 140.134 12.056 140.134 13.512ZM135.584 12.342C135.584 11.5793 135.324 10.9727 134.804 10.522C134.284 10.0713 133.634 9.846 132.854 9.846C132.108 9.846 131.476 10.0627 130.956 10.496C130.453 10.9293 130.141 11.5447 130.02 12.342H135.584ZM159.871 2.748V6.31H152.435V10.158H157.999V13.616H152.435V21H147.989V2.748H159.871ZM175.338 2.748V6.31H170.502V21H166.056V6.31H161.22V2.748H175.338Z" fill="url(#paint0_linear_8_3)"/>
<defs>
<linearGradient id="paint0_linear_8_3" x1="176" y1="-7.99996" x2="0.147062" y2="31.6522" gradientUnits="userSpaceOnUse">
<stop stop-color="#C495FF"/>
<stop offset="1" stop-color="#6C95FF"/>
</linearGradient>
</defs>
</svg>
