<svg width="388" height="399" viewBox="0 0 388 399" fill="none" xmlns="http://www.w3.org/2000/svg">
<path d="M292.616 128.35C282.345 128.35 273.257 122.381 266.402 114.732C260.561 108.215 253.522 102.895 245.287 98.7734C232.28 91.7049 216.856 88.1706 199.017 88.1706C168.171 88.1706 143.456 98.4014 124.874 118.863C106.291 138.952 97 165.924 97 199.779C97 235.866 106.663 264.14 125.989 284.601C145.686 304.691 172.63 314.736 206.822 314.736C230.236 314.736 249.933 308.783 265.914 296.878C272.566 292.036 278.48 286.331 283.656 279.765C295.484 264.758 281.865 245.538 262.757 245.538H208.621C193.157 245.538 180.621 233.002 180.621 217.538V203.225C180.621 187.761 193.157 175.225 208.621 175.225H360C375.464 175.225 388 187.761 388 203.225V259.889C388 262.585 387.625 265.271 386.799 267.837C379.605 290.175 367.927 311.016 351.764 330.361C335.04 350.822 313.67 367.378 287.655 380.027C261.64 392.676 232.28 399 199.575 399C160.923 399 126.36 390.629 95.8851 373.888C65.7816 356.775 42.182 333.151 25.0862 303.017C8.36207 272.883 0 238.47 0 199.779C0 161.088 8.36207 126.676 25.0862 96.5413C42.182 66.035 65.7816 42.4112 95.8851 25.6699C125.989 8.55664 160.366 0 199.017 0C245.845 0 285.239 11.3468 317.201 34.0405C339.795 49.8987 357.036 70.026 368.923 94.4223C376.945 110.886 363.448 128.35 345.135 128.35H292.616Z" fill="url(#paint0_linear_1360_134)"/>
<defs>
<linearGradient id="paint0_linear_1360_134" x1="9.43439e-06" y1="316.111" x2="387.956" y2="82.8153" gradientUnits="userSpaceOnUse">
<stop offset="0.3" stop-color="#124BCA"/>
<stop offset="1" stop-color="#517BD8"/>
</linearGradient>
</defs>
</svg>
